<svg width="64" height="64" viewBox="0 0 64 64" xmlns="http://www.w3.org/2000/svg">
  <path d="M 32 20 C 15.4 20 2 30.7 2 44 C 2 50 5.5 55.5 11 59 L 8 64 L 18 60 C 22.3 62 27 63 32 63 C 48.6 63 62 52.3 62 39 C 62 25.7 48.6 20 32 20 Z" fill="#E0E0E0"/>

  <g fill="#212121">
    <path d="M 32 2 L 16 18 L 12 22 L 52 22 L 48 18 Z"/>
    <rect x="8" y="22" width="48" height="6" rx="1"/>
    <circle cx="21" cy="36" r="7"/>
    <circle cx="43" cy="36" r="7"/>
    <rect x="28" y="34" width="8" height="3"/>
  </g>
</svg>